<svg width="2074" height="1334" xmlns="http://www.w3.org/2000/svg" xmlns:xlink="http://www.w3.org/1999/xlink" xml:space="preserve" overflow="hidden"><g transform="translate(-719 -667)"><path d="M1470.5 1334.5C1470.5 969.992 1765.99 674.5 2130.5 674.5 2495.01 674.5 2790.5 969.992 2790.5 1334.5 2790.5 1699.01 2495.01 1994.5 2130.5 1994.5 1765.99 1994.5 1470.5 1699.01 1470.5 1334.5Z" stroke="#C55A11" stroke-width="4.58333" stroke-miterlimit="8" stroke-dasharray="36.6667 13.75" stroke-opacity="0.4" fill="#F8CBAD" fill-rule="evenodd" fill-opacity="0.14902"/><path d="M726 1334C726 969.492 1021.49 674 1386 674 1750.51 674 2046 969.492 2046 1334 2046 1698.51 1750.51 1994 1386 1994 1021.49 1994 726 1698.51 726 1334Z" stroke="#2F5597" stroke-width="13.75" stroke-miterlimit="8" fill="#B4C7E7" fill-rule="evenodd" fill-opacity="0.74902"/><text fill="#7F7F7F" font-family="Calibri,Calibri_MSFontService,sans-serif" font-weight="700" font-size="183" transform="matrix(1 0 0 1 1241.53 1286)">Left</text><text fill="#7F7F7F" font-family="Calibri,Calibri_MSFontService,sans-serif" font-weight="700" font-size="183" transform="matrix(1 0 0 1 1234.84 1506)">Join</text></g></svg>