<svg width="2268" height="843" xmlns="http://www.w3.org/2000/svg" xmlns:xlink="http://www.w3.org/1999/xlink" xml:space="preserve" overflow="hidden"><g transform="translate(-1575 -581)"><path d="M1578.2 589.258 1792.01 589.258 1792.01 723.092 1578.2 723.092Z" fill="#548235" fill-rule="evenodd"/><path d="M1792.01 589.258 3089.78 589.258 3089.78 723.092 1792.01 723.092Z" fill="#C55A11" fill-rule="evenodd"/><path d="M3089.78 589.258 3833.17 589.258 3833.17 723.092 3089.78 723.092Z" fill="#C55A11" fill-rule="evenodd"/><path d="M1578.2 723.092 1792.01 723.092 1792.01 856.925 1578.2 856.925Z" fill="#E2F0D9" fill-rule="evenodd"/><path d="M1792.01 723.092 3089.78 723.092 3089.78 856.925 1792.01 856.925Z" fill="#FBE5D6" fill-rule="evenodd"/><path d="M3089.78 723.092 3833.17 723.092 3833.17 856.925 3089.78 856.925Z" fill="#FBE5D6" fill-rule="evenodd"/><path d="M1578.2 856.925 1792.01 856.925 1792.01 990.758 1578.2 990.758Z" fill="#E2F0D9" fill-rule="evenodd"/><path d="M1792.01 856.925 3089.78 856.925 3089.78 990.758 1792.01 990.758Z" fill="#FBE5D6" fill-rule="evenodd"/><path d="M3089.78 856.925 3833.17 856.925 3833.17 990.758 3089.78 990.758Z" fill="#FBE5D6" fill-rule="evenodd"/><path d="M1578.2 990.758 1792.01 990.758 1792.01 1124.59 1578.2 1124.59Z" fill="#E2F0D9" fill-rule="evenodd"/><path d="M1792.01 990.758 3089.78 990.758 3089.78 1124.59 1792.01 1124.59Z" fill="#FBE5D6" fill-rule="evenodd"/><path d="M3089.78 990.758 3833.17 990.758 3833.17 1124.59 3089.78 1124.59Z" fill="#FBE5D6" fill-rule="evenodd"/><path d="M1578.2 1124.59 1792.01 1124.59 1792.01 1258.42 1578.2 1258.42Z" fill="#E2F0D9" fill-rule="evenodd"/><path d="M1792.01 1124.59 3089.78 1124.59 3089.78 1258.42 1792.01 1258.42Z" fill="#FBE5D6" fill-rule="evenodd"/><path d="M3089.78 1124.59 3833.17 1124.59 3833.17 1258.42 3089.78 1258.42Z" fill="#FBE5D6" fill-rule="evenodd"/><path d="M1578.2 1258.42 1792.01 1258.42 1792.01 1392.26 1578.2 1392.26Z" fill="#E2F0D9" fill-rule="evenodd"/><path d="M1792.01 1258.42 3089.78 1258.42 3089.78 1392.26 1792.01 1392.26Z" fill="#FBE5D6" fill-rule="evenodd"/><path d="M3089.78 1258.42 3833.17 1258.42 3833.17 1392.26 3089.78 1392.26Z" fill="#FBE5D6" fill-rule="evenodd"/><path d="M1792.01 586.967 1792.01 1394.55" stroke="#FFFFFF" stroke-width="4.58333" stroke-linejoin="round" stroke-miterlimit="10" fill="none" fill-rule="evenodd"/><path d="M3089.78 586.967 3089.78 1394.55" stroke="#FFFFFF" stroke-width="4.58333" stroke-linejoin="round" stroke-miterlimit="10" fill="none" fill-rule="evenodd"/><path d="M1575.91 723.092 3835.46 723.092" stroke="#FFFFFF" stroke-width="13.75" stroke-linejoin="round" stroke-miterlimit="10" fill="none" fill-rule="evenodd"/><path d="M1575.91 856.925 3835.46 856.925" stroke="#FFFFFF" stroke-width="4.58333" stroke-linejoin="round" stroke-miterlimit="10" fill="none" fill-rule="evenodd"/><path d="M1575.91 990.758 3835.46 990.758" stroke="#FFFFFF" stroke-width="4.58333" stroke-linejoin="round" stroke-miterlimit="10" fill="none" fill-rule="evenodd"/><path d="M1575.91 1124.59 3835.46 1124.59" stroke="#FFFFFF" stroke-width="4.58333" stroke-linejoin="round" stroke-miterlimit="10" fill="none" fill-rule="evenodd"/><path d="M1575.91 1258.42 3835.46 1258.42" stroke="#FFFFFF" stroke-width="4.58333" stroke-linejoin="round" stroke-miterlimit="10" fill="none" fill-rule="evenodd"/><path d="M1578.2 586.967 1578.2 1394.55" stroke="#FFFFFF" stroke-width="4.58333" stroke-linejoin="round" stroke-miterlimit="10" fill="none" fill-rule="evenodd"/><path d="M3833.17 586.967 3833.17 1394.55" stroke="#FFFFFF" stroke-width="4.58333" stroke-linejoin="round" stroke-miterlimit="10" fill="none" fill-rule="evenodd"/><path d="M1575.91 589.258 3835.46 589.258" stroke="#FFFFFF" stroke-width="4.58333" stroke-linejoin="round" stroke-miterlimit="10" fill="none" fill-rule="evenodd"/><path d="M1575.91 1392.26 3835.46 1392.26" stroke="#FFFFFF" stroke-width="4.58333" stroke-linejoin="round" stroke-miterlimit="10" fill="none" fill-rule="evenodd"/><g><text fill="#FFFFFF" font-family="Source Code Pro,Source Code Pro_MSFontService,sans-serif" font-weight="700" font-size="83" transform="matrix(1 0 0 1 1611.2 684)">id</text></g><g><text fill="#FFFFFF" font-family="Source Code Pro,Source Code Pro_MSFontService,sans-serif" font-weight="700" font-size="83" transform="matrix(1 0 0 1 1825.01 684)">role</text></g><g><text fill="#FFFFFF" font-family="Source Code Pro,Source Code Pro_MSFontService,sans-serif" font-weight="700" font-size="83" transform="matrix(1 0 0 1 3122.78 684)">wage_per_hour</text></g><g><text font-family="Source Code Pro,Source Code Pro_MSFontService,sans-serif" font-weight="400" font-size="83" transform="matrix(1 0 0 1 1611.2 818)">1</text></g><g><text font-family="Source Code Pro,Source Code Pro_MSFontService,sans-serif" font-weight="400" font-size="83" transform="matrix(1 0 0 1 1825.01 818)">pragmatic leader</text></g><g><text font-family="Source Code Pro,Source Code Pro_MSFontService,sans-serif" font-weight="400" font-size="83" transform="matrix(1 0 0 1 3122.78 818)">75.00</text></g><g><text font-family="Source Code Pro,Source Code Pro_MSFontService,sans-serif" font-weight="400" font-size="83" transform="matrix(1 0 0 1 1611.2 951)">2</text></g><g><text font-family="Source Code Pro,Source Code Pro_MSFontService,sans-serif" font-weight="400" font-size="83" transform="matrix(1 0 0 1 1825.01 951)">diva pig</text></g><g><text font-family="Source Code Pro,Source Code Pro_MSFontService,sans-serif" font-weight="400" font-size="83" transform="matrix(1 0 0 1 3122.78 951)">85.00</text></g><g><text font-family="Source Code Pro,Source Code Pro_MSFontService,sans-serif" font-weight="400" font-size="83" transform="matrix(1 0 0 1 1611.2 1085)">3</text></g><g><text font-family="Source Code Pro,Source Code Pro_MSFontService,sans-serif" font-weight="400" font-size="83" transform="matrix(1 0 0 1 1825.01 1085)">stand</text></g><text font-family="Source Code Pro,Source Code Pro_MSFontService,sans-serif" font-weight="400" font-size="83" transform="matrix(1 0 0 1 2071.37 1085)">-</text><text font-family="Source Code Pro,Source Code Pro_MSFontService,sans-serif" font-weight="400" font-size="83" transform="matrix(1 0 0 1 2120.64 1085)">up comic</text><g><text font-family="Source Code Pro,Source Code Pro_MSFontService,sans-serif" font-weight="400" font-size="83" transform="matrix(1 0 0 1 3122.78 1085)">25.25</text></g><g><text font-family="Source Code Pro,Source Code Pro_MSFontService,sans-serif" font-weight="400" font-size="83" transform="matrix(1 0 0 1 1611.2 1219)">4</text></g><g><text font-family="Source Code Pro,Source Code Pro_MSFontService,sans-serif" font-weight="400" font-size="83" transform="matrix(1 0 0 1 1825.01 1219)">stunt performer</text></g><g><text font-family="Source Code Pro,Source Code Pro_MSFontService,sans-serif" font-weight="400" font-size="83" transform="matrix(1 0 0 1 3122.78 1219)">54.50</text></g><g><text font-family="Source Code Pro,Source Code Pro_MSFontService,sans-serif" font-weight="400" font-size="83" text-decoration="line-through" transform="matrix(1 0 0 1 1611.2 1353)">8</text></g><g><text font-family="Source Code Pro,Source Code Pro_MSFontService,sans-serif" font-weight="400" font-size="83" text-decoration="line-through" transform="matrix(1 0 0 1 1825.01 1353)">frenzied monster drummer</text></g><g><text font-family="Source Code Pro,Source Code Pro_MSFontService,sans-serif" font-weight="400" font-size="83" text-decoration="line-through" transform="matrix(1 0 0 1 3122.78 1353)">45.75</text></g></g></svg>