<svg width="1077" height="843" xmlns="http://www.w3.org/2000/svg" xmlns:xlink="http://www.w3.org/1999/xlink" xml:space="preserve" overflow="hidden"><g transform="translate(-300 -581)"><path d="M302.5 589.258 516.312 589.258 516.312 723.092 302.5 723.092Z" fill="#548235" fill-rule="evenodd"/><path d="M516.312 589.258 1367.3 589.258 1367.3 723.092 516.312 723.092Z" fill="#4472C4" fill-rule="evenodd"/><path d="M302.5 723.092 516.312 723.092 516.312 856.925 302.5 856.925Z" fill="#E2F0D9" fill-rule="evenodd"/><path d="M516.312 723.092 1367.3 723.092 1367.3 856.925 516.312 856.925Z" fill="#DAE3F3" fill-rule="evenodd"/><path d="M302.5 856.925 516.312 856.925 516.312 990.758 302.5 990.758Z" fill="#E2F0D9" fill-rule="evenodd"/><path d="M516.312 856.925 1367.3 856.925 1367.3 990.758 516.312 990.758Z" fill="#DAE3F3" fill-rule="evenodd"/><path d="M302.5 990.758 516.312 990.758 516.312 1124.59 302.5 1124.59Z" fill="#E2F0D9" fill-rule="evenodd"/><path d="M516.312 990.758 1367.3 990.758 1367.3 1124.59 516.312 1124.59Z" fill="#DAE3F3" fill-rule="evenodd"/><path d="M302.5 1124.59 516.312 1124.59 516.312 1258.42 302.5 1258.42Z" fill="#E2F0D9" fill-rule="evenodd"/><path d="M516.312 1124.59 1367.3 1124.59 1367.3 1258.42 516.312 1258.42Z" fill="#DAE3F3" fill-rule="evenodd"/><path d="M302.5 1258.42 516.312 1258.42 516.312 1392.26 302.5 1392.26Z" fill="#E2F0D9" fill-rule="evenodd"/><path d="M516.312 1258.42 1367.3 1258.42 1367.3 1392.26 516.312 1392.26Z" fill="#DAE3F3" fill-rule="evenodd"/><path d="M516.312 586.967 516.312 1394.55" stroke="#FFFFFF" stroke-width="4.58333" stroke-linejoin="round" stroke-miterlimit="10" fill="none" fill-rule="evenodd"/><path d="M300.208 723.092 1369.59 723.092" stroke="#FFFFFF" stroke-width="13.75" stroke-linejoin="round" stroke-miterlimit="10" fill="none" fill-rule="evenodd"/><path d="M300.208 856.925 1369.59 856.925" stroke="#FFFFFF" stroke-width="4.58333" stroke-linejoin="round" stroke-miterlimit="10" fill="none" fill-rule="evenodd"/><path d="M300.208 990.758 1369.59 990.758" stroke="#FFFFFF" stroke-width="4.58333" stroke-linejoin="round" stroke-miterlimit="10" fill="none" fill-rule="evenodd"/><path d="M300.208 1124.59 1369.59 1124.59" stroke="#FFFFFF" stroke-width="4.58333" stroke-linejoin="round" stroke-miterlimit="10" fill="none" fill-rule="evenodd"/><path d="M300.208 1258.42 1369.59 1258.42" stroke="#FFFFFF" stroke-width="4.58333" stroke-linejoin="round" stroke-miterlimit="10" fill="none" fill-rule="evenodd"/><path d="M302.5 586.967 302.5 1394.55" stroke="#FFFFFF" stroke-width="4.58333" stroke-linejoin="round" stroke-miterlimit="10" fill="none" fill-rule="evenodd"/><path d="M1367.3 586.967 1367.3 1394.55" stroke="#FFFFFF" stroke-width="4.58333" stroke-linejoin="round" stroke-miterlimit="10" fill="none" fill-rule="evenodd"/><path d="M300.208 589.258 1369.59 589.258" stroke="#FFFFFF" stroke-width="4.58333" stroke-linejoin="round" stroke-miterlimit="10" fill="none" fill-rule="evenodd"/><path d="M300.208 1392.26 1369.59 1392.26" stroke="#FFFFFF" stroke-width="4.58333" stroke-linejoin="round" stroke-miterlimit="10" fill="none" fill-rule="evenodd"/><g><text fill="#FFFFFF" font-family="Source Code Pro,Source Code Pro_MSFontService,sans-serif" font-weight="700" font-size="83" transform="matrix(1 0 0 1 549.312 684)">name</text></g><g><text fill="#FFFFFF" font-family="Source Code Pro,Source Code Pro_MSFontService,sans-serif" font-weight="700" font-size="83" transform="matrix(1 0 0 1 335.5 684)">id</text></g><g><text font-family="Source Code Pro,Source Code Pro_MSFontService,sans-serif" font-weight="400" font-size="83" transform="matrix(1 0 0 1 549.312 818)">Kermit the Frog</text></g><g><text font-family="Source Code Pro,Source Code Pro_MSFontService,sans-serif" font-weight="400" font-size="83" transform="matrix(1 0 0 1 335.5 818)">1</text></g><g><text font-family="Source Code Pro,Source Code Pro_MSFontService,sans-serif" font-weight="400" font-size="83" transform="matrix(1 0 0 1 549.312 951)">Miss Piggy</text></g><g><text font-family="Source Code Pro,Source Code Pro_MSFontService,sans-serif" font-weight="400" font-size="83" transform="matrix(1 0 0 1 335.5 951)">2</text></g><g><text font-family="Source Code Pro,Source Code Pro_MSFontService,sans-serif" font-weight="400" font-size="83" transform="matrix(1 0 0 1 549.312 1085)">Fozzie the Bear</text></g><g><text font-family="Source Code Pro,Source Code Pro_MSFontService,sans-serif" font-weight="400" font-size="83" transform="matrix(1 0 0 1 335.5 1085)">3</text></g><g><text font-family="Source Code Pro,Source Code Pro_MSFontService,sans-serif" font-weight="400" font-size="83" transform="matrix(1 0 0 1 549.312 1219)">Gonzo</text></g><g><text font-family="Source Code Pro,Source Code Pro_MSFontService,sans-serif" font-weight="400" font-size="83" transform="matrix(1 0 0 1 335.5 1219)">4</text></g><g><text font-family="Source Code Pro,Source Code Pro_MSFontService,sans-serif" font-weight="400" font-size="83" text-decoration="line-through" transform="matrix(1 0 0 1 549.312 1353)">Rowlf the Dog</text></g><g><text font-family="Source Code Pro,Source Code Pro_MSFontService,sans-serif" font-weight="400" font-size="83" text-decoration="line-through" transform="matrix(1 0 0 1 335.5 1353)">5</text></g></g></svg>