<svg width="2268" height="843" xmlns="http://www.w3.org/2000/svg" xmlns:xlink="http://www.w3.org/1999/xlink" xml:space="preserve" overflow="hidden"><g transform="translate(-1575 -672)"><path d="M1578.2 680.293 1792.01 680.293 1792.01 814.126 1578.2 814.126Z" fill="#548235" fill-rule="evenodd"/><path d="M1792.01 680.293 3089.78 680.293 3089.78 814.126 1792.01 814.126Z" fill="#C55A11" fill-rule="evenodd"/><path d="M3089.78 680.293 3833.17 680.293 3833.17 814.126 3089.78 814.126Z" fill="#C55A11" fill-rule="evenodd"/><path d="M1578.2 814.126 1792.01 814.126 1792.01 947.959 1578.2 947.959Z" fill="#E2F0D9" fill-rule="evenodd"/><path d="M1792.01 814.126 3089.78 814.126 3089.78 947.959 1792.01 947.959Z" fill="#FBE5D6" fill-rule="evenodd"/><path d="M3089.78 814.126 3833.17 814.126 3833.17 947.959 3089.78 947.959Z" fill="#FBE5D6" fill-rule="evenodd"/><path d="M1578.2 947.959 1792.01 947.959 1792.01 1081.79 1578.2 1081.79Z" fill="#E2F0D9" fill-rule="evenodd"/><path d="M1792.01 947.959 3089.78 947.959 3089.78 1081.79 1792.01 1081.79Z" fill="#FBE5D6" fill-rule="evenodd"/><path d="M3089.78 947.959 3833.17 947.959 3833.17 1081.79 3089.78 1081.79Z" fill="#FBE5D6" fill-rule="evenodd"/><path d="M1578.2 1081.79 1792.01 1081.79 1792.01 1215.63 1578.2 1215.63Z" fill="#E2F0D9" fill-rule="evenodd"/><path d="M1792.01 1081.79 3089.78 1081.79 3089.78 1215.63 1792.01 1215.63Z" fill="#FBE5D6" fill-rule="evenodd"/><path d="M3089.78 1081.79 3833.17 1081.79 3833.17 1215.63 3089.78 1215.63Z" fill="#FBE5D6" fill-rule="evenodd"/><path d="M1578.2 1215.63 1792.01 1215.63 1792.01 1349.46 1578.2 1349.46Z" fill="#E2F0D9" fill-rule="evenodd"/><path d="M1792.01 1215.63 3089.78 1215.63 3089.78 1349.46 1792.01 1349.46Z" fill="#FBE5D6" fill-rule="evenodd"/><path d="M3089.78 1215.63 3833.17 1215.63 3833.17 1349.46 3089.78 1349.46Z" fill="#FBE5D6" fill-rule="evenodd"/><path d="M1578.2 1349.46 1792.01 1349.46 1792.01 1483.29 1578.2 1483.29Z" fill="#E2F0D9" fill-rule="evenodd"/><path d="M1792.01 1349.46 3089.78 1349.46 3089.78 1483.29 1792.01 1483.29Z" fill="#FBE5D6" fill-rule="evenodd"/><path d="M3089.78 1349.46 3833.17 1349.46 3833.17 1483.29 3089.78 1483.29Z" fill="#FBE5D6" fill-rule="evenodd"/><path d="M1792.01 678.001 1792.01 1485.58" stroke="#FFFFFF" stroke-width="4.58333" stroke-linejoin="round" stroke-miterlimit="10" fill="none" fill-rule="evenodd"/><path d="M3089.78 678.001 3089.78 1485.58" stroke="#FFFFFF" stroke-width="4.58333" stroke-linejoin="round" stroke-miterlimit="10" fill="none" fill-rule="evenodd"/><path d="M1575.91 814.126 3835.46 814.126" stroke="#FFFFFF" stroke-width="13.75" stroke-linejoin="round" stroke-miterlimit="10" fill="none" fill-rule="evenodd"/><path d="M1575.91 947.959 3835.46 947.959" stroke="#FFFFFF" stroke-width="4.58333" stroke-linejoin="round" stroke-miterlimit="10" fill="none" fill-rule="evenodd"/><path d="M1575.91 1081.79 3835.46 1081.79" stroke="#FFFFFF" stroke-width="4.58333" stroke-linejoin="round" stroke-miterlimit="10" fill="none" fill-rule="evenodd"/><path d="M1575.91 1215.63 3835.46 1215.63" stroke="#FFFFFF" stroke-width="4.58333" stroke-linejoin="round" stroke-miterlimit="10" fill="none" fill-rule="evenodd"/><path d="M1575.91 1349.46 3835.46 1349.46" stroke="#FFFFFF" stroke-width="4.58333" stroke-linejoin="round" stroke-miterlimit="10" fill="none" fill-rule="evenodd"/><path d="M1578.2 678.001 1578.2 1485.58" stroke="#FFFFFF" stroke-width="4.58333" stroke-linejoin="round" stroke-miterlimit="10" fill="none" fill-rule="evenodd"/><path d="M3833.17 678.001 3833.17 1485.58" stroke="#FFFFFF" stroke-width="4.58333" stroke-linejoin="round" stroke-miterlimit="10" fill="none" fill-rule="evenodd"/><path d="M1575.91 680.293 3835.46 680.293" stroke="#FFFFFF" stroke-width="4.58333" stroke-linejoin="round" stroke-miterlimit="10" fill="none" fill-rule="evenodd"/><path d="M1575.91 1483.29 3835.46 1483.29" stroke="#FFFFFF" stroke-width="4.58333" stroke-linejoin="round" stroke-miterlimit="10" fill="none" fill-rule="evenodd"/><g><text fill="#FFFFFF" font-family="Source Code Pro,Source Code Pro_MSFontService,sans-serif" font-weight="700" font-size="83" transform="matrix(1 0 0 1 1611.2 775)">id</text></g><g><text fill="#FFFFFF" font-family="Source Code Pro,Source Code Pro_MSFontService,sans-serif" font-weight="700" font-size="83" transform="matrix(1 0 0 1 1825.01 775)">role</text></g><g><text fill="#FFFFFF" font-family="Source Code Pro,Source Code Pro_MSFontService,sans-serif" font-weight="700" font-size="83" transform="matrix(1 0 0 1 3122.78 775)">wage_per_hour</text></g><g><text font-family="Source Code Pro,Source Code Pro_MSFontService,sans-serif" font-weight="400" font-size="83" transform="matrix(1 0 0 1 1611.2 909)">1</text></g><g><text font-family="Source Code Pro,Source Code Pro_MSFontService,sans-serif" font-weight="400" font-size="83" transform="matrix(1 0 0 1 1825.01 909)">pragmatic leader</text></g><g><text font-family="Source Code Pro,Source Code Pro_MSFontService,sans-serif" font-weight="400" font-size="83" transform="matrix(1 0 0 1 3122.78 909)">75.00</text></g><g><text font-family="Source Code Pro,Source Code Pro_MSFontService,sans-serif" font-weight="400" font-size="83" transform="matrix(1 0 0 1 1611.2 1042)">2</text></g><g><text font-family="Source Code Pro,Source Code Pro_MSFontService,sans-serif" font-weight="400" font-size="83" transform="matrix(1 0 0 1 1825.01 1042)">diva pig</text></g><g><text font-family="Source Code Pro,Source Code Pro_MSFontService,sans-serif" font-weight="400" font-size="83" transform="matrix(1 0 0 1 3122.78 1042)">85.00</text></g><g><text font-family="Source Code Pro,Source Code Pro_MSFontService,sans-serif" font-weight="400" font-size="83" transform="matrix(1 0 0 1 1611.2 1176)">3</text></g><g><text font-family="Source Code Pro,Source Code Pro_MSFontService,sans-serif" font-weight="400" font-size="83" transform="matrix(1 0 0 1 1825.01 1176)">stand</text></g><text font-family="Source Code Pro,Source Code Pro_MSFontService,sans-serif" font-weight="400" font-size="83" transform="matrix(1 0 0 1 2071.37 1176)">-</text><text font-family="Source Code Pro,Source Code Pro_MSFontService,sans-serif" font-weight="400" font-size="83" transform="matrix(1 0 0 1 2120.64 1176)">up comic</text><g><text font-family="Source Code Pro,Source Code Pro_MSFontService,sans-serif" font-weight="400" font-size="83" transform="matrix(1 0 0 1 3122.78 1176)">25.25</text></g><g><text font-family="Source Code Pro,Source Code Pro_MSFontService,sans-serif" font-weight="400" font-size="83" transform="matrix(1 0 0 1 1611.2 1310)">4</text></g><g><text font-family="Source Code Pro,Source Code Pro_MSFontService,sans-serif" font-weight="400" font-size="83" transform="matrix(1 0 0 1 1825.01 1310)">stunt performer</text></g><g><text font-family="Source Code Pro,Source Code Pro_MSFontService,sans-serif" font-weight="400" font-size="83" transform="matrix(1 0 0 1 3122.78 1310)">54.50</text></g><g><text font-family="Source Code Pro,Source Code Pro_MSFontService,sans-serif" font-weight="400" font-size="83" text-decoration="line-through" transform="matrix(1 0 0 1 1611.2 1444)">8</text></g><g><text font-family="Source Code Pro,Source Code Pro_MSFontService,sans-serif" font-weight="400" font-size="83" text-decoration="line-through" transform="matrix(1 0 0 1 1825.01 1444)">frenzied monster drummer</text></g><g><text font-family="Source Code Pro,Source Code Pro_MSFontService,sans-serif" font-weight="400" font-size="83" text-decoration="line-through" transform="matrix(1 0 0 1 3122.78 1444)">45.75</text></g></g></svg>