<svg width="1077" height="843" xmlns="http://www.w3.org/2000/svg" xmlns:xlink="http://www.w3.org/1999/xlink" xml:space="preserve" overflow="hidden"><g transform="translate(-300 -672)"><path d="M302.5 680.293 516.312 680.293 516.312 814.126 302.5 814.126Z" fill="#548235" fill-rule="evenodd"/><path d="M516.312 680.293 1367.3 680.293 1367.3 814.126 516.312 814.126Z" fill="#4472C4" fill-rule="evenodd"/><path d="M302.5 814.126 516.312 814.126 516.312 947.959 302.5 947.959Z" fill="#E2F0D9" fill-rule="evenodd"/><path d="M516.312 814.126 1367.3 814.126 1367.3 947.959 516.312 947.959Z" fill="#DAE3F3" fill-rule="evenodd"/><path d="M302.5 947.959 516.312 947.959 516.312 1081.79 302.5 1081.79Z" fill="#E2F0D9" fill-rule="evenodd"/><path d="M516.312 947.959 1367.3 947.959 1367.3 1081.79 516.312 1081.79Z" fill="#DAE3F3" fill-rule="evenodd"/><path d="M302.5 1081.79 516.312 1081.79 516.312 1215.63 302.5 1215.63Z" fill="#E2F0D9" fill-rule="evenodd"/><path d="M516.312 1081.79 1367.3 1081.79 1367.3 1215.63 516.312 1215.63Z" fill="#DAE3F3" fill-rule="evenodd"/><path d="M302.5 1215.63 516.312 1215.63 516.312 1349.46 302.5 1349.46Z" fill="#E2F0D9" fill-rule="evenodd"/><path d="M516.312 1215.63 1367.3 1215.63 1367.3 1349.46 516.312 1349.46Z" fill="#DAE3F3" fill-rule="evenodd"/><path d="M302.5 1349.46 516.312 1349.46 516.312 1483.29 302.5 1483.29Z" fill="#E2F0D9" fill-rule="evenodd"/><path d="M516.312 1349.46 1367.3 1349.46 1367.3 1483.29 516.312 1483.29Z" fill="#DAE3F3" fill-rule="evenodd"/><path d="M516.312 678.001 516.312 1485.58" stroke="#FFFFFF" stroke-width="4.58333" stroke-linejoin="round" stroke-miterlimit="10" fill="none" fill-rule="evenodd"/><path d="M300.208 814.126 1369.59 814.126" stroke="#FFFFFF" stroke-width="13.75" stroke-linejoin="round" stroke-miterlimit="10" fill="none" fill-rule="evenodd"/><path d="M300.208 947.959 1369.59 947.959" stroke="#FFFFFF" stroke-width="4.58333" stroke-linejoin="round" stroke-miterlimit="10" fill="none" fill-rule="evenodd"/><path d="M300.208 1081.79 1369.59 1081.79" stroke="#FFFFFF" stroke-width="4.58333" stroke-linejoin="round" stroke-miterlimit="10" fill="none" fill-rule="evenodd"/><path d="M300.208 1215.63 1369.59 1215.63" stroke="#FFFFFF" stroke-width="4.58333" stroke-linejoin="round" stroke-miterlimit="10" fill="none" fill-rule="evenodd"/><path d="M300.208 1349.46 1369.59 1349.46" stroke="#FFFFFF" stroke-width="4.58333" stroke-linejoin="round" stroke-miterlimit="10" fill="none" fill-rule="evenodd"/><path d="M302.5 678.001 302.5 1485.58" stroke="#FFFFFF" stroke-width="4.58333" stroke-linejoin="round" stroke-miterlimit="10" fill="none" fill-rule="evenodd"/><path d="M1367.3 678.001 1367.3 1485.58" stroke="#FFFFFF" stroke-width="4.58333" stroke-linejoin="round" stroke-miterlimit="10" fill="none" fill-rule="evenodd"/><path d="M300.208 680.293 1369.59 680.293" stroke="#FFFFFF" stroke-width="4.58333" stroke-linejoin="round" stroke-miterlimit="10" fill="none" fill-rule="evenodd"/><path d="M300.208 1483.29 1369.59 1483.29" stroke="#FFFFFF" stroke-width="4.58333" stroke-linejoin="round" stroke-miterlimit="10" fill="none" fill-rule="evenodd"/><g><text fill="#FFFFFF" font-family="Source Code Pro,Source Code Pro_MSFontService,sans-serif" font-weight="700" font-size="83" transform="matrix(1 0 0 1 335.5 775)">id</text></g><g><text fill="#FFFFFF" font-family="Source Code Pro,Source Code Pro_MSFontService,sans-serif" font-weight="700" font-size="83" transform="matrix(1 0 0 1 549.312 775)">name</text></g><g><text font-family="Source Code Pro,Source Code Pro_MSFontService,sans-serif" font-weight="400" font-size="83" transform="matrix(1 0 0 1 335.5 909)">1</text></g><g><text font-family="Source Code Pro,Source Code Pro_MSFontService,sans-serif" font-weight="400" font-size="83" transform="matrix(1 0 0 1 549.312 909)">Kermit the Frog</text></g><g><text font-family="Source Code Pro,Source Code Pro_MSFontService,sans-serif" font-weight="400" font-size="83" transform="matrix(1 0 0 1 335.5 1042)">2</text></g><g><text font-family="Source Code Pro,Source Code Pro_MSFontService,sans-serif" font-weight="400" font-size="83" transform="matrix(1 0 0 1 549.312 1042)">Miss Piggy</text></g><g><text font-family="Source Code Pro,Source Code Pro_MSFontService,sans-serif" font-weight="400" font-size="83" transform="matrix(1 0 0 1 335.5 1176)">3</text></g><g><text font-family="Source Code Pro,Source Code Pro_MSFontService,sans-serif" font-weight="400" font-size="83" transform="matrix(1 0 0 1 549.312 1176)">Fozzie the Bear</text></g><g><text font-family="Source Code Pro,Source Code Pro_MSFontService,sans-serif" font-weight="400" font-size="83" transform="matrix(1 0 0 1 335.5 1310)">4</text></g><g><text font-family="Source Code Pro,Source Code Pro_MSFontService,sans-serif" font-weight="400" font-size="83" transform="matrix(1 0 0 1 549.312 1310)">Gonzo</text></g><g><text font-family="Source Code Pro,Source Code Pro_MSFontService,sans-serif" font-weight="400" font-size="83" text-decoration="line-through" transform="matrix(1 0 0 1 335.5 1444)">5</text></g><g><text font-family="Source Code Pro,Source Code Pro_MSFontService,sans-serif" font-weight="400" font-size="83" text-decoration="line-through" transform="matrix(1 0 0 1 549.312 1444)">Rowlf the Dog</text></g></g></svg>