<svg width="2066" height="1334" xmlns="http://www.w3.org/2000/svg" xmlns:xlink="http://www.w3.org/1999/xlink" xml:space="preserve" overflow="hidden"><g transform="translate(-724 -667)"><path d="M726.5 1334.5C726.5 969.992 1021.99 674.5 1386.5 674.5 1751.01 674.5 2046.5 969.992 2046.5 1334.5 2046.5 1699.01 1751.01 1994.5 1386.5 1994.5 1021.99 1994.5 726.5 1699.01 726.5 1334.5Z" stroke="#2F5597" stroke-width="4.58333" stroke-miterlimit="8" stroke-dasharray="36.6667 13.75" stroke-opacity="0.4" fill="#B4C7E7" fill-rule="evenodd" fill-opacity="0.14902"/><path d="M1463 1334C1463 969.492 1758.49 674 2123 674 2487.51 674 2783 969.492 2783 1334 2783 1698.51 2487.51 1994 2123 1994 1758.49 1994 1463 1698.51 1463 1334Z" stroke="#C55A11" stroke-width="13.75" stroke-miterlimit="8" fill="#F8CBAD" fill-rule="evenodd" fill-opacity="0.74902"/><text fill="#7F7F7F" font-family="Calibri,Calibri_MSFontService,sans-serif" font-weight="700" font-size="183" transform="matrix(1 0 0 1 1925.42 1286)">Right</text><text fill="#7F7F7F" font-family="Calibri,Calibri_MSFontService,sans-serif" font-weight="700" font-size="183" transform="matrix(1 0 0 1 1971.85 1506)">Joi</text><text fill="#7F7F7F" font-family="Calibri,Calibri_MSFontService,sans-serif" font-weight="700" font-size="183" transform="matrix(1 0 0 1 2176.39 1506)">n</text></g></svg>