<svg width="2062" height="1325" xmlns="http://www.w3.org/2000/svg" xmlns:xlink="http://www.w3.org/1999/xlink" xml:space="preserve" overflow="hidden"><g transform="translate(-724 -672)"><path d="M1463.5 1334.5C1463.5 969.992 1758.99 674.5 2123.5 674.5 2488.01 674.5 2783.5 969.992 2783.5 1334.5 2783.5 1699.01 2488.01 1994.5 2123.5 1994.5 1758.99 1994.5 1463.5 1699.01 1463.5 1334.5Z" stroke="#C55A11" stroke-width="4.58333" stroke-miterlimit="8" stroke-dasharray="36.6667 13.75" stroke-opacity="0.4" fill="#F8CBAD" fill-rule="evenodd" fill-opacity="0.14902"/><path d="M726.5 1334.5C726.5 969.992 1021.99 674.5 1386.5 674.5 1751.01 674.5 2046.5 969.992 2046.5 1334.5 2046.5 1699.01 1751.01 1994.5 1386.5 1994.5 1021.99 1994.5 726.5 1699.01 726.5 1334.5Z" stroke="#2F5597" stroke-width="4.58333" stroke-miterlimit="8" stroke-dasharray="36.6667 13.75" stroke-opacity="0.4" fill="#B4C7E7" fill-rule="evenodd" fill-opacity="0.14902"/><path d="M1752.24 795.815C1735.99 797.864 1716.58 817.443 1700.79 831.33 1684.99 845.217 1657.45 879.139 1657.45 879.139 1640.52 897.807 1615.47 921.939 1599.22 943.339 1582.97 964.739 1574.39 982.269 1559.95 1007.54 1545.5 1032.81 1526.09 1060.81 1512.55 1094.96 1499.01 1129.11 1486.15 1177.38 1478.7 1212.44 1471.25 1247.49 1469.22 1271.63 1467.86 1305.32 1466.51 1339.01 1464.7 1375.21 1470.57 1414.6 1476.44 1453.98 1492.92 1507.26 1503.07 1541.63 1513.23 1576.01 1517.52 1592.4 1531.51 1620.86 1545.5 1649.32 1566.04 1683.69 1587.03 1712.38 1608.02 1741.06 1629.46 1765.88 1657.45 1792.97 1685.44 1820.06 1754.95 1874.93 1754.95 1874.93 1771.88 1887.91 1747.96 1879.03 1759.02 1870.83 1770.07 1862.64 1799.19 1845.79 1821.31 1825.75 1843.43 1805.72 1868.25 1780.91 1891.73 1750.63 1915.2 1720.35 1941.61 1682.1 1962.14 1644.08 1982.68 1606.06 2002.32 1565.77 2014.96 1522.51 2027.6 1479.25 2033.92 1425.75 2037.98 1384.55 2042.04 1343.34 2042.72 1312.83 2039.33 1275.27 2035.95 1237.71 2026.24 1194.22 2017.67 1159.16 2009.09 1124.1 2001.64 1095.19 1987.87 1064.91 1974.11 1034.63 1953.57 1005.72 1935.06 977.488 1916.55 949.258 1899.63 921.939 1876.83 895.53 1854.03 869.122 1818.37 836.338 1798.29 819.036 1778.2 801.734 1768.49 793.766 1752.24 795.815Z" stroke="#C2C9DF" stroke-width="4.58333" stroke-miterlimit="8" fill="#C2C9DF" fill-rule="evenodd"/><path d="M1755.74 784C1783.82 804.277 1811.91 824.553 1836.57 847.236 1861.22 869.918 1882.91 894.204 1903.69 920.094 1924.47 945.984 1944.79 974.394 1961.23 1002.58 1977.67 1030.76 1990.68 1058.02 2002.33 1089.18 2013.97 1120.34 2024.02 1154.94 2031.1 1189.53 2038.17 1224.13 2042.97 1257.81 2044.79 1296.76 2046.62 1335.71 2046.85 1383.36 2042.05 1423.23 2037.26 1463.1 2027.21 1501.59 2016.03 1535.95 2004.84 1570.32 1989.54 1600.79 1974.93 1629.43 1960.32 1658.07 1943.88 1684.65 1928.35 1707.79 1912.83 1730.93 1897.07 1750.63 1881.77 1768.28 1866.48 1785.92 1852.09 1799.66 1836.57 1813.64 1821.04 1827.62 1788.62 1852.13 1788.62 1852.13L1753 1881 1753 1881" stroke="#2F5597" stroke-width="13.75" stroke-miterlimit="8" fill="none" fill-rule="evenodd"/><path d="M1760.19 1884C1731.34 1863.67 1702.48 1843.34 1677.15 1820.59 1651.82 1797.85 1629.54 1773.49 1608.19 1747.53 1586.85 1721.57 1565.97 1693.09 1549.09 1664.83 1532.2 1636.57 1518.83 1609.23 1506.87 1577.99 1494.9 1546.74 1484.58 1512.05 1477.31 1477.36 1470.04 1442.67 1465.11 1408.9 1463.24 1369.84 1461.36 1330.78 1461.13 1283 1466.05 1243.02 1470.98 1203.05 1481.3 1164.45 1492.79 1129.99 1504.29 1095.53 1520 1064.97 1535.01 1036.26 1550.02 1007.54 1566.91 980.888 1582.86 957.684 1598.81 934.481 1615 914.723 1630.71 897.033 1646.43 879.343 1661.2 865.558 1677.15 851.544 1693.1 837.53 1726.41 812.948 1726.41 812.948L1763 784 1763 784" stroke="#C55A11" stroke-width="13.75" stroke-miterlimit="8" fill="none" fill-rule="evenodd"/><text fill="#7F7F7F" font-family="Calibri,Calibri_MSFontService,sans-serif" font-weight="700" font-size="183" transform="matrix(1 0 0 1 1561.08 1282)">Inner</text><text fill="#7F7F7F" font-family="Calibri,Calibri_MSFontService,sans-serif" font-weight="700" font-size="183" transform="matrix(1 0 0 1 1611.22 1502)">Join</text></g></svg>