<svg width="2762" height="710" xmlns="http://www.w3.org/2000/svg" xmlns:xlink="http://www.w3.org/1999/xlink" xml:space="preserve" overflow="hidden"><g transform="translate(-300 -1665)"><path d="M302.5 1674.06 516.312 1674.06 516.312 1807.9 302.5 1807.9Z" fill="#7F7F7F" fill-rule="evenodd"/><path d="M516.312 1674.06 1370.65 1674.06 1370.65 1807.9 516.312 1807.9Z" fill="#7F7F7F" fill-rule="evenodd"/><path d="M1370.65 1674.06 2274.25 1674.06 2274.25 1807.9 1370.65 1807.9Z" fill="#7F7F7F" fill-rule="evenodd"/><path d="M2274.25 1674.06 3052.6 1674.06 3052.6 1807.9 2274.25 1807.9Z" fill="#7F7F7F" fill-rule="evenodd"/><path d="M302.5 1807.9 516.312 1807.9 516.312 1941.73 302.5 1941.73Z" fill="#E2F0D9" fill-rule="evenodd"/><path d="M516.312 1807.9 1370.65 1807.9 1370.65 1941.73 516.312 1941.73Z" fill="#CFD5EA" fill-rule="evenodd"/><path d="M1370.65 1807.9 2274.25 1807.9 2274.25 1941.73 1370.65 1941.73Z" fill="#FBE5D6" fill-rule="evenodd"/><path d="M2274.25 1807.9 3052.6 1807.9 3052.6 1941.73 2274.25 1941.73Z" fill="#FBE5D6" fill-rule="evenodd"/><path d="M302.5 1941.73 516.312 1941.73 516.312 2075.56 302.5 2075.56Z" fill="#E2F0D9" fill-rule="evenodd"/><path d="M516.312 1941.73 1370.65 1941.73 1370.65 2075.56 516.312 2075.56Z" fill="#E9EBF5" fill-rule="evenodd"/><path d="M1370.65 1941.73 2274.25 1941.73 2274.25 2075.56 1370.65 2075.56Z" fill="#FBE5D6" fill-rule="evenodd"/><path d="M2274.25 1941.73 3052.6 1941.73 3052.6 2075.56 2274.25 2075.56Z" fill="#FBE5D6" fill-rule="evenodd"/><path d="M302.5 2075.56 516.312 2075.56 516.312 2209.4 302.5 2209.4Z" fill="#E2F0D9" fill-rule="evenodd"/><path d="M516.312 2075.56 1370.65 2075.56 1370.65 2209.4 516.312 2209.4Z" fill="#CFD5EA" fill-rule="evenodd"/><path d="M1370.65 2075.56 2274.25 2075.56 2274.25 2209.4 1370.65 2209.4Z" fill="#FBE5D6" fill-rule="evenodd"/><path d="M2274.25 2075.56 3052.6 2075.56 3052.6 2209.4 2274.25 2209.4Z" fill="#FBE5D6" fill-rule="evenodd"/><path d="M302.5 2209.4 516.312 2209.4 516.312 2343.23 302.5 2343.23Z" fill="#E2F0D9" fill-rule="evenodd"/><path d="M516.312 2209.4 1370.65 2209.4 1370.65 2343.23 516.312 2343.23Z" fill="#E9EBF5" fill-rule="evenodd"/><path d="M1370.65 2209.4 2274.25 2209.4 2274.25 2343.23 1370.65 2343.23Z" fill="#FBE5D6" fill-rule="evenodd"/><path d="M2274.25 2209.4 3052.6 2209.4 3052.6 2343.23 2274.25 2343.23Z" fill="#FBE5D6" fill-rule="evenodd"/><path d="M516.312 1671.77 516.312 2345.52" stroke="#FFFFFF" stroke-width="4.58333" stroke-linejoin="round" stroke-miterlimit="10" fill="none" fill-rule="evenodd"/><path d="M1370.65 1671.77 1370.65 2345.52" stroke="#FFFFFF" stroke-width="4.58333" stroke-linejoin="round" stroke-miterlimit="10" fill="none" fill-rule="evenodd"/><path d="M2274.25 1671.77 2274.25 2345.52" stroke="#FFFFFF" stroke-width="4.58333" stroke-linejoin="round" stroke-miterlimit="10" fill="none" fill-rule="evenodd"/><path d="M300.208 1807.9 3054.89 1807.9" stroke="#FFFFFF" stroke-width="13.75" stroke-linejoin="round" stroke-miterlimit="10" fill="none" fill-rule="evenodd"/><path d="M300.208 1941.73 3054.89 1941.73" stroke="#FFFFFF" stroke-width="4.58333" stroke-linejoin="round" stroke-miterlimit="10" fill="none" fill-rule="evenodd"/><path d="M300.208 2075.56 3054.89 2075.56" stroke="#FFFFFF" stroke-width="4.58333" stroke-linejoin="round" stroke-miterlimit="10" fill="none" fill-rule="evenodd"/><path d="M300.208 2209.4 3054.89 2209.4" stroke="#FFFFFF" stroke-width="4.58333" stroke-linejoin="round" stroke-miterlimit="10" fill="none" fill-rule="evenodd"/><path d="M302.5 1671.77 302.5 2345.52" stroke="#FFFFFF" stroke-width="4.58333" stroke-linejoin="round" stroke-miterlimit="10" fill="none" fill-rule="evenodd"/><path d="M3052.6 1671.77 3052.6 2345.52" stroke="#FFFFFF" stroke-width="4.58333" stroke-linejoin="round" stroke-miterlimit="10" fill="none" fill-rule="evenodd"/><path d="M300.208 1674.06 3054.89 1674.06" stroke="#FFFFFF" stroke-width="4.58333" stroke-linejoin="round" stroke-miterlimit="10" fill="none" fill-rule="evenodd"/><path d="M300.208 2343.23 3054.89 2343.23" stroke="#FFFFFF" stroke-width="4.58333" stroke-linejoin="round" stroke-miterlimit="10" fill="none" fill-rule="evenodd"/><g><text fill="#FFFFFF" font-family="Source Code Pro,Source Code Pro_MSFontService,sans-serif" font-weight="700" font-size="83" transform="matrix(1 0 0 1 335.5 1769)">id</text></g><g><text fill="#FFFFFF" font-family="Source Code Pro,Source Code Pro_MSFontService,sans-serif" font-weight="700" font-size="83" transform="matrix(1 0 0 1 549.312 1769)">name</text></g><g><text fill="#FFFFFF" font-family="Source Code Pro,Source Code Pro_MSFontService,sans-serif" font-weight="700" font-size="83" transform="matrix(1 0 0 1 1403.65 1769)">role</text></g><g><text fill="#FFFFFF" font-family="Source Code Pro,Source Code Pro_MSFontService,sans-serif" font-weight="700" font-size="83" transform="matrix(1 0 0 1 2307.25 1769)">wage_per_hour</text></g><g><text font-family="Source Code Pro,Source Code Pro_MSFontService,sans-serif" font-weight="400" font-size="83" transform="matrix(1 0 0 1 335.5 1902)">1</text></g><g><text font-family="Source Code Pro,Source Code Pro_MSFontService,sans-serif" font-weight="400" font-size="83" transform="matrix(1 0 0 1 549.312 1902)">Kermit the Frog</text></g><g><text font-family="Source Code Pro,Source Code Pro_MSFontService,sans-serif" font-weight="400" font-size="83" transform="matrix(1 0 0 1 1403.65 1902)">pragmatic leader</text></g><g><text font-family="Source Code Pro,Source Code Pro_MSFontService,sans-serif" font-weight="400" font-size="83" transform="matrix(1 0 0 1 2307.25 1902)">75.00</text></g><g><text font-family="Source Code Pro,Source Code Pro_MSFontService,sans-serif" font-weight="400" font-size="83" transform="matrix(1 0 0 1 335.5 2036)">2</text></g><g><text font-family="Source Code Pro,Source Code Pro_MSFontService,sans-serif" font-weight="400" font-size="83" transform="matrix(1 0 0 1 549.312 2036)">Miss Piggy</text></g><g><text font-family="Source Code Pro,Source Code Pro_MSFontService,sans-serif" font-weight="400" font-size="83" transform="matrix(1 0 0 1 1403.65 2036)">diva pig</text></g><g><text font-family="Source Code Pro,Source Code Pro_MSFontService,sans-serif" font-weight="400" font-size="83" transform="matrix(1 0 0 1 2307.25 2036)">85.00</text></g><g><text font-family="Source Code Pro,Source Code Pro_MSFontService,sans-serif" font-weight="400" font-size="83" transform="matrix(1 0 0 1 335.5 2170)">3</text></g><g><text font-family="Source Code Pro,Source Code Pro_MSFontService,sans-serif" font-weight="400" font-size="83" transform="matrix(1 0 0 1 549.312 2170)">Fozzie the Bear</text></g><g><text font-family="Source Code Pro,Source Code Pro_MSFontService,sans-serif" font-weight="400" font-size="83" transform="matrix(1 0 0 1 1403.65 2170)">stand</text></g><text font-family="Source Code Pro,Source Code Pro_MSFontService,sans-serif" font-weight="400" font-size="83" transform="matrix(1 0 0 1 1650 2170)">-</text><text font-family="Source Code Pro,Source Code Pro_MSFontService,sans-serif" font-weight="400" font-size="83" transform="matrix(1 0 0 1 1699.27 2170)">up comic</text><g><text font-family="Source Code Pro,Source Code Pro_MSFontService,sans-serif" font-weight="400" font-size="83" transform="matrix(1 0 0 1 2307.25 2170)">25.25</text></g><g><text font-family="Source Code Pro,Source Code Pro_MSFontService,sans-serif" font-weight="400" font-size="83" transform="matrix(1 0 0 1 335.5 2304)">4</text></g><g><text font-family="Source Code Pro,Source Code Pro_MSFontService,sans-serif" font-weight="400" font-size="83" transform="matrix(1 0 0 1 549.312 2304)">Gonzo</text></g><g><text font-family="Source Code Pro,Source Code Pro_MSFontService,sans-serif" font-weight="400" font-size="83" transform="matrix(1 0 0 1 1403.65 2304)">stunt performer</text></g><g><text font-family="Source Code Pro,Source Code Pro_MSFontService,sans-serif" font-weight="400" font-size="83" transform="matrix(1 0 0 1 2307.25 2304)">54.50</text></g></g></svg>