<svg width="2071" height="1334" xmlns="http://www.w3.org/2000/svg" xmlns:xlink="http://www.w3.org/1999/xlink" xml:space="preserve" overflow="hidden"><g transform="translate(-719 -667)"><path d="M726 1334C726 969.492 1021.49 674 1386 674 1750.51 674 2046 969.492 2046 1334 2046 1698.51 1750.51 1994 1386 1994 1021.49 1994 726 1698.51 726 1334Z" stroke="#2F5597" stroke-width="13.75" stroke-miterlimit="8" fill="#B4C7E7" fill-rule="evenodd" fill-opacity="0.898039"/><path d="M1463 1334C1463 969.492 1758.49 674 2123 674 2487.51 674 2783 969.492 2783 1334 2783 1698.51 2487.51 1994 2123 1994 1758.49 1994 1463 1698.51 1463 1334Z" stroke="#C55A11" stroke-width="13.75" stroke-miterlimit="8" fill="#F8CBAD" fill-rule="evenodd" fill-opacity="0.898039"/><path d="M1741.87 778C1771.3 798.572 1800.72 819.145 1826.56 842.158 1852.4 865.171 1875.12 889.811 1896.89 916.079 1918.66 942.346 1939.95 971.171 1957.18 999.763 1974.4 1028.36 1988.04 1056.02 2000.24 1087.63 2012.44 1119.25 2022.97 1154.35 2030.38 1189.45 2037.8 1224.55 2042.82 1258.72 2044.74 1298.24 2046.65 1337.75 2046.89 1386.11 2041.87 1426.55 2036.84 1467 2026.32 1506.05 2014.59 1540.92 2002.87 1575.79 1986.84 1606.71 1971.53 1635.76 1956.22 1664.82 1939 1691.78 1922.73 1715.26 1906.46 1738.74 1889.95 1758.73 1873.93 1776.63 1857.9 1794.53 1842.83 1808.48 1826.56 1822.66 1810.29 1836.84 1776.32 1861.71 1776.32 1861.71L1739 1891 1739 1891" stroke="#2F5597" stroke-width="13.75" stroke-miterlimit="8" fill="none" fill-rule="evenodd"/><text fill="#7F7F7F" font-family="Calibri,Calibri_MSFontService,sans-serif" font-weight="700" font-size="220" transform="matrix(1 0 0 1 1068.87 1407)">Full Outer Join</text></g></svg>