<svg width="3156" height="978" xmlns="http://www.w3.org/2000/svg" xmlns:xlink="http://www.w3.org/1999/xlink" xml:space="preserve" overflow="hidden"><g transform="translate(-300 -1456)"><path d="M302.5 1465.13 516.312 1465.13 516.312 1598.96 302.5 1598.96Z" fill="#7F7F7F" fill-rule="evenodd"/><path d="M516.312 1465.13 1370.65 1465.13 1370.65 1598.96 516.312 1598.96Z" fill="#7F7F7F" fill-rule="evenodd"/><path d="M1370.65 1465.13 2668.42 1465.13 2668.42 1598.96 1370.65 1598.96Z" fill="#7F7F7F" fill-rule="evenodd"/><path d="M2668.42 1465.13 3446.76 1465.13 3446.76 1598.96 2668.42 1598.96Z" fill="#7F7F7F" fill-rule="evenodd"/><path d="M302.5 1598.96 516.312 1598.96 516.312 1732.79 302.5 1732.79Z" fill="#E2F0D9" fill-rule="evenodd"/><path d="M516.312 1598.96 1370.65 1598.96 1370.65 1732.79 516.312 1732.79Z" fill="#CFD5EA" fill-rule="evenodd"/><path d="M1370.65 1598.96 2668.42 1598.96 2668.42 1732.79 1370.65 1732.79Z" fill="#FBE5D6" fill-rule="evenodd"/><path d="M2668.42 1598.96 3446.76 1598.96 3446.76 1732.79 2668.42 1732.79Z" fill="#FBE5D6" fill-rule="evenodd"/><path d="M302.5 1732.79 516.312 1732.79 516.312 1866.63 302.5 1866.63Z" fill="#E2F0D9" fill-rule="evenodd"/><path d="M516.312 1732.79 1370.65 1732.79 1370.65 1866.63 516.312 1866.63Z" fill="#E9EBF5" fill-rule="evenodd"/><path d="M1370.65 1732.79 2668.42 1732.79 2668.42 1866.63 1370.65 1866.63Z" fill="#FBE5D6" fill-rule="evenodd"/><path d="M2668.42 1732.79 3446.76 1732.79 3446.76 1866.63 2668.42 1866.63Z" fill="#FBE5D6" fill-rule="evenodd"/><path d="M302.5 1866.63 516.312 1866.63 516.312 2000.46 302.5 2000.46Z" fill="#E2F0D9" fill-rule="evenodd"/><path d="M516.312 1866.63 1370.65 1866.63 1370.65 2000.46 516.312 2000.46Z" fill="#CFD5EA" fill-rule="evenodd"/><path d="M1370.65 1866.63 2668.42 1866.63 2668.42 2000.46 1370.65 2000.46Z" fill="#FBE5D6" fill-rule="evenodd"/><path d="M2668.42 1866.63 3446.76 1866.63 3446.76 2000.46 2668.42 2000.46Z" fill="#FBE5D6" fill-rule="evenodd"/><path d="M302.5 2000.46 516.312 2000.46 516.312 2134.29 302.5 2134.29Z" fill="#E2F0D9" fill-rule="evenodd"/><path d="M516.312 2000.46 1370.65 2000.46 1370.65 2134.29 516.312 2134.29Z" fill="#E9EBF5" fill-rule="evenodd"/><path d="M1370.65 2000.46 2668.42 2000.46 2668.42 2134.29 1370.65 2134.29Z" fill="#FBE5D6" fill-rule="evenodd"/><path d="M2668.42 2000.46 3446.76 2000.46 3446.76 2134.29 2668.42 2134.29Z" fill="#FBE5D6" fill-rule="evenodd"/><path d="M302.5 2134.29 516.312 2134.29 516.312 2268.13 302.5 2268.13Z" fill="#E2F0D9" fill-rule="evenodd"/><path d="M516.312 2134.29 1370.65 2134.29 1370.65 2268.13 516.312 2268.13Z" fill="#CFD5EA" fill-rule="evenodd"/><path d="M302.5 2268.13 516.312 2268.13 516.312 2401.96 302.5 2401.96Z" fill="#E2F0D9" fill-rule="evenodd"/><path d="M1370.65 2268.13 2668.42 2268.13 2668.42 2401.96 1370.65 2401.96Z" fill="#FBE5D6" fill-rule="evenodd"/><path d="M2668.42 2268.13 3446.76 2268.13 3446.76 2401.96 2668.42 2401.96Z" fill="#FBE5D6" fill-rule="evenodd"/><path d="M516.312 1462.83 516.312 2404.25" stroke="#FFFFFF" stroke-width="4.58333" stroke-linejoin="round" stroke-miterlimit="10" fill="none" fill-rule="evenodd"/><path d="M1370.65 1462.83 1370.65 2404.25" stroke="#FFFFFF" stroke-width="4.58333" stroke-linejoin="round" stroke-miterlimit="10" fill="none" fill-rule="evenodd"/><path d="M2668.42 1462.83 2668.42 2404.25" stroke="#FFFFFF" stroke-width="4.58333" stroke-linejoin="round" stroke-miterlimit="10" fill="none" fill-rule="evenodd"/><path d="M300.208 1598.96 3449.05 1598.96" stroke="#FFFFFF" stroke-width="13.75" stroke-linejoin="round" stroke-miterlimit="10" fill="none" fill-rule="evenodd"/><path d="M300.208 1732.79 3449.05 1732.79" stroke="#FFFFFF" stroke-width="4.58333" stroke-linejoin="round" stroke-miterlimit="10" fill="none" fill-rule="evenodd"/><path d="M300.208 1866.63 3449.05 1866.63" stroke="#FFFFFF" stroke-width="4.58333" stroke-linejoin="round" stroke-miterlimit="10" fill="none" fill-rule="evenodd"/><path d="M300.208 2000.46 3449.05 2000.46" stroke="#FFFFFF" stroke-width="4.58333" stroke-linejoin="round" stroke-miterlimit="10" fill="none" fill-rule="evenodd"/><path d="M300.208 2134.29 3449.05 2134.29" stroke="#FFFFFF" stroke-width="4.58333" stroke-linejoin="round" stroke-miterlimit="10" fill="none" fill-rule="evenodd"/><path d="M300.208 2268.13 3449.05 2268.13" stroke="#FFFFFF" stroke-width="4.58333" stroke-linejoin="round" stroke-miterlimit="10" fill="none" fill-rule="evenodd"/><path d="M302.5 1462.83 302.5 2404.25" stroke="#FFFFFF" stroke-width="4.58333" stroke-linejoin="round" stroke-miterlimit="10" fill="none" fill-rule="evenodd"/><path d="M3446.76 1462.83 3446.76 2404.25" stroke="#FFFFFF" stroke-width="4.58333" stroke-linejoin="round" stroke-miterlimit="10" fill="none" fill-rule="evenodd"/><path d="M300.208 1465.13 3449.05 1465.13" stroke="#FFFFFF" stroke-width="4.58333" stroke-linejoin="round" stroke-miterlimit="10" fill="none" fill-rule="evenodd"/><path d="M300.208 2401.96 3449.05 2401.96" stroke="#FFFFFF" stroke-width="4.58333" stroke-linejoin="round" stroke-miterlimit="10" fill="none" fill-rule="evenodd"/><g><text fill="#FFFFFF" font-family="Source Code Pro,Source Code Pro_MSFontService,sans-serif" font-weight="700" font-size="83" transform="matrix(1 0 0 1 2701.42 1560)">wage_per_hour</text></g><g><text fill="#FFFFFF" font-family="Source Code Pro,Source Code Pro_MSFontService,sans-serif" font-weight="700" font-size="83" transform="matrix(1 0 0 1 1403.65 1560)">role</text></g><g><text fill="#FFFFFF" font-family="Source Code Pro,Source Code Pro_MSFontService,sans-serif" font-weight="700" font-size="83" transform="matrix(1 0 0 1 549.312 1560)">name</text></g><g><text fill="#FFFFFF" font-family="Source Code Pro,Source Code Pro_MSFontService,sans-serif" font-weight="700" font-size="83" transform="matrix(1 0 0 1 335.5 1560)">id</text></g><g><text font-family="Source Code Pro,Source Code Pro_MSFontService,sans-serif" font-weight="400" font-size="83" transform="matrix(1 0 0 1 2701.42 1693)">75.00</text></g><g><text font-family="Source Code Pro,Source Code Pro_MSFontService,sans-serif" font-weight="400" font-size="83" transform="matrix(1 0 0 1 1403.65 1693)">pragmatic leader</text></g><g><text font-family="Source Code Pro,Source Code Pro_MSFontService,sans-serif" font-weight="400" font-size="83" transform="matrix(1 0 0 1 549.312 1693)">Kermit the Frog</text></g><g><text font-family="Source Code Pro,Source Code Pro_MSFontService,sans-serif" font-weight="400" font-size="83" transform="matrix(1 0 0 1 335.5 1693)">1</text></g><g><text font-family="Source Code Pro,Source Code Pro_MSFontService,sans-serif" font-weight="400" font-size="83" transform="matrix(1 0 0 1 2701.42 1827)">85.00</text></g><g><text font-family="Source Code Pro,Source Code Pro_MSFontService,sans-serif" font-weight="400" font-size="83" transform="matrix(1 0 0 1 1403.65 1827)">diva pig</text></g><g><text font-family="Source Code Pro,Source Code Pro_MSFontService,sans-serif" font-weight="400" font-size="83" transform="matrix(1 0 0 1 549.312 1827)">Miss Piggy</text></g><g><text font-family="Source Code Pro,Source Code Pro_MSFontService,sans-serif" font-weight="400" font-size="83" transform="matrix(1 0 0 1 335.5 1827)">2</text></g><g><text font-family="Source Code Pro,Source Code Pro_MSFontService,sans-serif" font-weight="400" font-size="83" transform="matrix(1 0 0 1 2701.42 1961)">25.25</text></g><g><text font-family="Source Code Pro,Source Code Pro_MSFontService,sans-serif" font-weight="400" font-size="83" transform="matrix(1 0 0 1 1403.65 1961)">stand</text></g><text font-family="Source Code Pro,Source Code Pro_MSFontService,sans-serif" font-weight="400" font-size="83" transform="matrix(1 0 0 1 1650 1961)">-</text><text font-family="Source Code Pro,Source Code Pro_MSFontService,sans-serif" font-weight="400" font-size="83" transform="matrix(1 0 0 1 1699.27 1961)">up comic</text><g><text font-family="Source Code Pro,Source Code Pro_MSFontService,sans-serif" font-weight="400" font-size="83" transform="matrix(1 0 0 1 549.312 1961)">Fozzie the Bear</text></g><g><text font-family="Source Code Pro,Source Code Pro_MSFontService,sans-serif" font-weight="400" font-size="83" transform="matrix(1 0 0 1 335.5 1961)">3</text></g><g><text font-family="Source Code Pro,Source Code Pro_MSFontService,sans-serif" font-weight="400" font-size="83" transform="matrix(1 0 0 1 2701.42 2095)">54.50</text></g><g><text font-family="Source Code Pro,Source Code Pro_MSFontService,sans-serif" font-weight="400" font-size="83" transform="matrix(1 0 0 1 1403.65 2095)">stunt performer</text></g><g><text font-family="Source Code Pro,Source Code Pro_MSFontService,sans-serif" font-weight="400" font-size="83" transform="matrix(1 0 0 1 549.312 2095)">Gonzo</text></g><g><text font-family="Source Code Pro,Source Code Pro_MSFontService,sans-serif" font-weight="400" font-size="83" transform="matrix(1 0 0 1 335.5 2095)">4</text></g><g><text font-family="Source Code Pro,Source Code Pro_MSFontService,sans-serif" font-weight="700" font-size="83" transform="matrix(1 0 0 1 2701.42 2229)">null</text></g><g><text font-family="Source Code Pro,Source Code Pro_MSFontService,sans-serif" font-weight="700" font-size="83" transform="matrix(1 0 0 1 1403.65 2229)">null</text></g><g><text font-family="Source Code Pro,Source Code Pro_MSFontService,sans-serif" font-weight="400" font-size="83" transform="matrix(1 0 0 1 549.312 2229)">Rowlf the Dog</text></g><g><text font-family="Source Code Pro,Source Code Pro_MSFontService,sans-serif" font-weight="400" font-size="83" transform="matrix(1 0 0 1 335.5 2229)">5</text></g><g><text font-family="Source Code Pro,Source Code Pro_MSFontService,sans-serif" font-weight="400" font-size="83" transform="matrix(1 0 0 1 2701.42 2363)">45.75</text></g><g><text font-family="Source Code Pro,Source Code Pro_MSFontService,sans-serif" font-weight="400" font-size="83" transform="matrix(1 0 0 1 1403.65 2363)">frenzied monster drummer</text></g><g><text font-family="Source Code Pro,Source Code Pro_MSFontService,sans-serif" font-weight="700" font-size="83" transform="matrix(1 0 0 1 549.312 2363)">null</text></g><g><text font-family="Source Code Pro,Source Code Pro_MSFontService,sans-serif" font-weight="400" font-size="83" transform="matrix(1 0 0 1 335.5 2363)">8</text></g></g></svg>